<?xml version="1.0" encoding="UTF-8"?>
<svg width="800" height="600" viewBox="0 0 800 600" fill="none" xmlns="http://www.w3.org/2000/svg">
  <!-- Background Elements -->
  <circle cx="400" cy="300" r="250" fill="#E3F2FD" opacity="0.5"/>
  <circle cx="400" cy="300" r="200" fill="#BBDEFB" opacity="0.3"/>
  
  <!-- Chat Bubbles -->
  <g transform="translate(200, 200)">
    <!-- Left Chat Bubble -->
    <path d="M50 100 C50 50, 150 50, 150 100 C150 150, 50 150, 50 100" fill="#90CAF9"/>
    <path d="M50 100 L30 120 L50 120 Z" fill="#90CAF9"/>
    
    <!-- Right Chat Bubble -->
    <path d="M250 150 C250 100, 350 100, 350 150 C350 200, 250 200, 250 150" fill="#64B5F6"/>
    <path d="M350 150 L370 170 L350 170 Z" fill="#64B5F6"/>
  </g>
  
  <!-- Analysis Elements -->
  <g transform="translate(300, 250)">
    <!-- Graph Lines -->
    <path d="M0 100 L50 50 L100 75 L150 25 L200 100" stroke="#1976D2" stroke-width="3" fill="none"/>
    <circle cx="50" cy="50" r="5" fill="#1976D2"/>
    <circle cx="100" cy="75" r="5" fill="#1976D2"/>
    <circle cx="150" cy="25" r="5" fill="#1976D2"/>
    
    <!-- Emotion Icons -->
    <g transform="translate(250, 50)">
      <circle cx="0" cy="0" r="20" fill="#FFB74D"/>
      <path d="M-8 -5 Q0 5, 8 -5" stroke="white" stroke-width="2" fill="none"/>
    </g>
    <g transform="translate(300, 50)">
      <circle cx="0" cy="0" r="20" fill="#81C784"/>
      <path d="M-8 5 Q0 -5, 8 5" stroke="white" stroke-width="2" fill="none"/>
    </g>
  </g>
  
  <!-- Decorative Elements -->
  <g transform="translate(100, 400)">
    <circle cx="0" cy="0" r="10" fill="#42A5F5"/>
    <circle cx="30" cy="20" r="8" fill="#42A5F5"/>
    <circle cx="60" cy="0" r="12" fill="#42A5F5"/>
  </g>
  
  <!-- Connection Lines -->
  <g stroke="#90CAF9" stroke-width="2" stroke-dasharray="5,5">
    <path d="M200 250 L300 250"/>
    <path d="M400 250 L500 250"/>
    <path d="M300 300 L400 300"/>
  </g>
</svg> 